# xmcd
#
# Track frame offsets:
#	150
#	10281
#	24972
#	46838
#	61377
#	87915
#	97989
#	112200
#	126613
#	135448
#	151743
#	165494
#	174337
#	194663
#	208393
#	221980
#	239279
#
# Disc length: 3372 seconds
#
# Revision: 0
# Processed by: cddbd v1.5.1PL0 Copyright (c) Steve Scherf et al.
# Submitted via: audiograbber 1.83.01
#
DISCID=ef0d2a11
DTITLE=Charlie Brown Jr. - Nadando Com Os Tubarões
DYEAR=2000
DGENRE=Rock
TTITLE0=Rubão
TTITLE1=Ralé
TTITLE2=Não É Sério
TTITLE3=O Penetra
TTITLE4=A Banca
TTITLE5=Tudo Mudar
TTITLE6=Fichado
TTITLE7=Ouviu Se Falar
TTITLE8=Amor Pelas Ruas
TTITLE9=Essa É Por Quem Ficou Pra Trás
TTITLE10=Transar No Escuro
TTITLE11=Fundão
TTITLE12=Somos Extremes No Esporte E Na Música
TTITLE13=Talvez A Metade Do Caminho
TTITLE14=Pra Mais Tarde Fazermos A Cabeca
TTITLE15=No Desafio Ibiraboys
TTITLE16=Trocando Uma Idéia Com Deus
EXTD=
EXTT0=
EXTT1=
EXTT2=
EXTT3=
EXTT4=
EXTT5=
EXTT6=
EXTT7=
EXTT8=
EXTT9=
EXTT10=
EXTT11=
EXTT12=
EXTT13=
EXTT14=
EXTT15=
EXTT16=
PLAYORDER=
